<mxfile host="app.diagrams.net" modified="2022-09-09T12:49:16.720Z" agent="5.0 (Windows NT 10.0; Win64; x64) AppleWebKit/537.36 (KHTML, like Gecko) Chrome/105.0.0.0 Safari/537.36" etag="7cWAx7UbgyK-5mAjfP_I" version="20.3.0" type="github">
  <diagram id="Me9XHudTuH9sCGc-dVAF" name="第 1 页">
    <mxGraphModel dx="782" dy="412" grid="1" gridSize="10" guides="1" tooltips="1" connect="1" arrows="1" fold="1" page="1" pageScale="1" pageWidth="827" pageHeight="1169" math="0" shadow="0">
      <root>
        <mxCell id="0" />
        <mxCell id="1" parent="0" />
        <mxCell id="kHEMgU5fXvgZ2HoR9b6R-13" style="edgeStyle=orthogonalEdgeStyle;rounded=0;orthogonalLoop=1;jettySize=auto;html=1;exitX=0.5;exitY=1;exitDx=0;exitDy=0;entryX=0.5;entryY=0;entryDx=0;entryDy=0;fontSize=19;" edge="1" parent="1" source="kHEMgU5fXvgZ2HoR9b6R-1" target="kHEMgU5fXvgZ2HoR9b6R-2">
          <mxGeometry relative="1" as="geometry" />
        </mxCell>
        <mxCell id="kHEMgU5fXvgZ2HoR9b6R-1" value="&lt;font style=&quot;font-size: 19px;&quot;&gt;井下机器人采集数据&lt;/font&gt;" style="rounded=0;whiteSpace=wrap;html=1;fillColor=#dae8fc;strokeColor=#6c8ebf;" vertex="1" parent="1">
          <mxGeometry x="260" y="40" width="240" height="40" as="geometry" />
        </mxCell>
        <mxCell id="kHEMgU5fXvgZ2HoR9b6R-14" style="edgeStyle=orthogonalEdgeStyle;rounded=0;orthogonalLoop=1;jettySize=auto;html=1;exitX=0.5;exitY=1;exitDx=0;exitDy=0;fontSize=19;entryX=0.5;entryY=0;entryDx=0;entryDy=0;" edge="1" parent="1" source="kHEMgU5fXvgZ2HoR9b6R-2" target="kHEMgU5fXvgZ2HoR9b6R-3">
          <mxGeometry relative="1" as="geometry">
            <mxPoint x="380" y="190" as="targetPoint" />
          </mxGeometry>
        </mxCell>
        <mxCell id="kHEMgU5fXvgZ2HoR9b6R-2" value="&lt;span style=&quot;font-size: 19px;&quot;&gt;剔除低质数据&lt;/span&gt;" style="rounded=0;whiteSpace=wrap;html=1;fillColor=#dae8fc;strokeColor=#6c8ebf;" vertex="1" parent="1">
          <mxGeometry x="260" y="120" width="240" height="40" as="geometry" />
        </mxCell>
        <mxCell id="kHEMgU5fXvgZ2HoR9b6R-15" style="edgeStyle=orthogonalEdgeStyle;rounded=0;orthogonalLoop=1;jettySize=auto;html=1;exitX=0.5;exitY=1;exitDx=0;exitDy=0;fontSize=19;" edge="1" parent="1" source="kHEMgU5fXvgZ2HoR9b6R-3" target="kHEMgU5fXvgZ2HoR9b6R-5">
          <mxGeometry relative="1" as="geometry" />
        </mxCell>
        <mxCell id="kHEMgU5fXvgZ2HoR9b6R-3" value="&lt;span style=&quot;font-size: 19px;&quot;&gt;图像数据增强&lt;/span&gt;" style="rounded=0;whiteSpace=wrap;html=1;fillColor=#dae8fc;strokeColor=#6c8ebf;" vertex="1" parent="1">
          <mxGeometry x="260" y="200" width="240" height="40" as="geometry" />
        </mxCell>
        <mxCell id="kHEMgU5fXvgZ2HoR9b6R-16" style="edgeStyle=orthogonalEdgeStyle;rounded=0;orthogonalLoop=1;jettySize=auto;html=1;exitX=0.5;exitY=1;exitDx=0;exitDy=0;entryX=0.5;entryY=0;entryDx=0;entryDy=0;fontSize=19;" edge="1" parent="1" source="kHEMgU5fXvgZ2HoR9b6R-5" target="kHEMgU5fXvgZ2HoR9b6R-6">
          <mxGeometry relative="1" as="geometry" />
        </mxCell>
        <mxCell id="kHEMgU5fXvgZ2HoR9b6R-5" value="&lt;span style=&quot;font-size: 19px;&quot;&gt;手动标注裂缝图像&lt;/span&gt;" style="rounded=0;whiteSpace=wrap;html=1;fillColor=#dae8fc;strokeColor=#6c8ebf;" vertex="1" parent="1">
          <mxGeometry x="260" y="280" width="240" height="40" as="geometry" />
        </mxCell>
        <mxCell id="kHEMgU5fXvgZ2HoR9b6R-17" style="edgeStyle=orthogonalEdgeStyle;rounded=0;orthogonalLoop=1;jettySize=auto;html=1;exitX=0.5;exitY=1;exitDx=0;exitDy=0;fontSize=19;" edge="1" parent="1" source="kHEMgU5fXvgZ2HoR9b6R-6" target="kHEMgU5fXvgZ2HoR9b6R-7">
          <mxGeometry relative="1" as="geometry" />
        </mxCell>
        <mxCell id="kHEMgU5fXvgZ2HoR9b6R-6" value="&lt;span style=&quot;font-size: 19px;&quot;&gt;构建裂缝图像数据库&lt;/span&gt;" style="rounded=0;whiteSpace=wrap;html=1;fillColor=#dae8fc;strokeColor=#6c8ebf;" vertex="1" parent="1">
          <mxGeometry x="260" y="360" width="240" height="40" as="geometry" />
        </mxCell>
        <mxCell id="kHEMgU5fXvgZ2HoR9b6R-18" style="edgeStyle=orthogonalEdgeStyle;rounded=0;orthogonalLoop=1;jettySize=auto;html=1;exitX=0.5;exitY=1;exitDx=0;exitDy=0;entryX=0.5;entryY=0;entryDx=0;entryDy=0;fontSize=19;" edge="1" parent="1" source="kHEMgU5fXvgZ2HoR9b6R-7" target="kHEMgU5fXvgZ2HoR9b6R-8">
          <mxGeometry relative="1" as="geometry" />
        </mxCell>
        <mxCell id="kHEMgU5fXvgZ2HoR9b6R-7" value="&lt;span style=&quot;font-size: 19px;&quot;&gt;训练改进Efficientdet模型&lt;/span&gt;" style="rounded=0;whiteSpace=wrap;html=1;fillColor=#dae8fc;strokeColor=#6c8ebf;" vertex="1" parent="1">
          <mxGeometry x="260" y="440" width="240" height="40" as="geometry" />
        </mxCell>
        <mxCell id="kHEMgU5fXvgZ2HoR9b6R-19" style="edgeStyle=orthogonalEdgeStyle;rounded=0;orthogonalLoop=1;jettySize=auto;html=1;exitX=0.5;exitY=1;exitDx=0;exitDy=0;entryX=0.5;entryY=0;entryDx=0;entryDy=0;fontSize=19;" edge="1" parent="1" source="kHEMgU5fXvgZ2HoR9b6R-8" target="kHEMgU5fXvgZ2HoR9b6R-9">
          <mxGeometry relative="1" as="geometry" />
        </mxCell>
        <mxCell id="kHEMgU5fXvgZ2HoR9b6R-8" value="&lt;span style=&quot;font-size: 19px;&quot;&gt;输入待检测图像&lt;/span&gt;" style="rounded=0;whiteSpace=wrap;html=1;fillColor=#dae8fc;strokeColor=#6c8ebf;" vertex="1" parent="1">
          <mxGeometry x="260" y="520" width="240" height="40" as="geometry" />
        </mxCell>
        <mxCell id="kHEMgU5fXvgZ2HoR9b6R-9" value="&lt;span style=&quot;font-size: 19px;&quot;&gt;获取检测结果&lt;/span&gt;" style="rounded=0;whiteSpace=wrap;html=1;fillColor=#dae8fc;strokeColor=#6c8ebf;" vertex="1" parent="1">
          <mxGeometry x="260" y="600" width="240" height="40" as="geometry" />
        </mxCell>
      </root>
    </mxGraphModel>
  </diagram>
</mxfile>
